<svg width="100" height="100" viewBox="0 0 100 100" version="1.1" xmlns="http://www.w3.org/2000/svg" xmlns:xlink="http://www.w3.org/1999/xlink">
<title>Autophagy Logo (Light)</title>
<desc>Created using Figma</desc>
<g id="Canvas" transform="translate(612 785)">
<g id="Union">
<use xlink:href="#path0_fill" transform="translate(-612 -785)" fill="#F2F2F2"/>
<use xlink:href="#path1_fill" transform="translate(-612 -785)" fill="#F2F2F2"/>
<use xlink:href="#path2_fill" transform="translate(-612 -785)" fill="#F2F2F2"/>
<use xlink:href="#path3_fill" transform="translate(-612 -785)" fill="#F2F2F2"/>
</g>
</g>
<defs>
<path id="path0_fill" d="M 53.5954 26.7409C 53.5954 29.0132 51.8068 30.8552 49.6005 30.8552C 47.3942 30.8552 45.6056 29.0132 45.6056 26.7409C 45.6056 24.4686 47.3941 22.6265 49.6005 22.6265C 51.8068 22.6265 53.5954 24.4686 53.5954 26.7409Z"/>
<path id="path1_fill" d="M 77.565 76.9361C 79.7713 76.9361 81.5599 75.094 81.5599 72.8217C 81.5599 70.5494 79.7713 68.7073 77.565 68.7073C 75.3586 68.7074 73.5701 70.5494 73.5701 72.8217C 73.57 75.094 75.3587 76.9361 77.565 76.9361Z"/>
<path id="path2_fill" d="M 22.435 76.936C 24.6414 76.936 26.43 75.094 26.43 72.8217C 26.43 70.5494 24.6414 68.7073 22.435 68.7073C 20.2287 68.7073 18.4401 70.5494 18.4401 72.8217C 18.4401 75.094 20.2287 76.936 22.435 76.936Z"/>
<path id="path3_fill" fill-rule="evenodd" d="M 72.4693 40.4765L 64.4501 45.2377L 67.9868 51.5466L 77.2758 46.0314L 100 59.5235L 100 86.5079L 77.2758 100L 54.5516 86.5079L 54.5516 75.2903L 45.4484 75.2903L 45.4484 86.2052L 22.7242 99.6973L 0 86.2052L 4.35102e-06 59.2208L 22.7242 45.7286L 32.1795 51.3426L 35.4615 45.488L 27.0209 40.4765L 27.0209 13.4922L 49.7451 0L 72.4693 13.4922L 72.4693 40.4765ZM 64.475 35.73L 64.475 18.2439L 49.7407 9.4956L 35.0151 18.2386L 35.0151 35.7248L 49.7495 44.4731L 64.475 35.73ZM 49.7451 53.9686L 59.6047 48.1146L 63.1414 54.4234L 54.5516 59.5235L 54.5516 69.5302L 45.4484 69.5302L 45.4484 59.2208L 37.0249 54.2195L 40.3069 48.3649L 49.7451 53.9686ZM 92.0057 81.7614L 92.0057 64.2752L 77.2714 55.5269L 62.5458 64.27L 62.5459 81.7561L 77.2802 90.5044L 92.0057 81.7614ZM 37.4542 63.9725L 37.4542 81.4587L 22.7286 90.2017L 7.99425 81.4535L 7.99427 63.9673L 22.7198 55.2242L 37.4542 63.9725Z"/>
</defs>
</svg>
