<svg width="72" height="68" viewBox="0 0 72 68" version="1.1" xmlns="http://www.w3.org/2000/svg" xmlns:xlink="http://www.w3.org/1999/xlink">
<title>Group 2</title>
<desc>Created using Figma</desc>
<g id="Canvas" transform="translate(-331 4066)">
<g id="Group 2">
<g id="Polygon">
<mask id="mask0_outline_ins">
<use xlink:href="#path0_fill" fill="white" transform="matrix(-1 -0.000638345 -0.000637918 -1 399.652 -3995.3)"/>
</mask>
<g mask="url(#mask0_outline_ins)">
<use xlink:href="#path1_stroke_2x" transform="matrix(-1 -0.000638345 -0.000637918 -1 399.652 -3995.3)" fill="#F6F6F6"/>
</g>
</g>
<g id="Ellipse">
<use xlink:href="#path2_fill" transform="translate(361 -4066)" fill="#F6F6F6"/>
</g>
<g id="Ellipse">
<use xlink:href="#path2_fill" transform="matrix(-0.5 0.866025 -0.866025 -0.5 402.518 -4014.27)" fill="#F6F6F6"/>
</g>
<g id="Ellipse">
<use xlink:href="#path2_fill" transform="matrix(-0.5 -0.866025 0.866025 -0.5 336.96 -4004.18)" fill="#F6F6F6"/>
</g>
</g>
</g>
<defs>
<path id="path0_fill" d="M 30.2064 4.50414C 31.3609 2.50304 34.249 2.50304 35.4035 4.50415L 58.6192 44.7446C 59.7731 46.7446 58.3296 49.2437 56.0207 49.2437L 9.58928 49.2437C 7.2803 49.2437 5.83687 46.7446 6.99072 44.7446L 30.2064 4.50414Z"/>
<path id="path1_stroke_2x" d="M 6.99072 44.7446L -2.53732 39.2476L 6.99072 44.7446ZM 35.4035 4.50415L 25.8755 10.0011L 35.4035 4.50415ZM 25.8755 10.0011L 49.0912 50.2415L 68.1473 39.2476L 44.9316 -0.992815L 25.8755 10.0011ZM 56.0207 38.2437L 9.58928 38.2437L 9.58928 60.2437L 56.0207 60.2437L 56.0207 38.2437ZM 16.5188 50.2415L 39.7345 10.0011L 20.6784 -0.992819L -2.53732 39.2476L 16.5188 50.2415ZM 9.58928 38.2437C 15.7465 38.2437 19.5957 44.9081 16.5188 50.2415L -2.53732 39.2476C -7.92197 48.581 -1.1859 60.2437 9.58928 60.2437L 9.58928 38.2437ZM 49.0912 50.2415C 46.0143 44.9082 49.8634 38.2437 56.0207 38.2437L 56.0207 60.2437C 66.7959 60.2437 73.5319 48.5809 68.1473 39.2476L 49.0912 50.2415ZM 44.9316 -0.992815C 39.544 -10.3313 26.066 -10.3313 20.6784 -0.992819L 39.7345 10.0011C 36.6558 15.3374 28.9541 15.3374 25.8755 10.0011L 44.9316 -0.992815Z"/>
<path id="path2_fill" d="M 11 5.5C 11 8.53757 8.53757 11 5.5 11C 2.46243 11 0 8.53757 0 5.5C 0 2.46243 2.46243 0 5.5 0C 8.53757 0 11 2.46243 11 5.5Z"/>
</defs>
</svg>
